<svg xmlns="http://www.w3.org/2000/svg" viewBox="0 0 100 100">
  <rect width="100" height="100" rx="14" fill="#1d261d"/>
  <svg x="14" y="14" width="72" height="72" viewBox="120 695 260 260">
    <path fill="white" d="m 244.70109,791.79085 c -3.11096,-12.20025 -8.29236,-22.8637 -16.95615,-31.63647 -10.42939,-10.56049 -21.48985,-10.25842 -31.3594,0.94897 -11.96327,13.58496 -12.83885,29.16474 -7.3131,45.44617 4.82431,14.21472 13.96373,26.02936 22.55536,38.11481 8.96344,12.60852 17.79295,25.3139 26.52458,38.08392 1.76603,2.58289 2.75708,5.68396 4.23835,8.47565 2.65359,5.0011 7.09829,5.42456 10.08447,0.77362 15.55649,-24.22864 28.40491,-49.76227 35.39276,-77.83368 2.80576,-11.27118 4.6673,-22.789 2.93249,-34.61707 -3.11621,-21.24682 -14.0126,-33.36749 -34.97436,-38.46179 -1.94705,-0.4732 -3.71222,-1.69488 -5.56183,-2.56897 1.22894,-1.85974 2.0585,-4.27929 3.75223,-5.48761 10.33969,-7.37643 21.12652,-14.23211 33.7662,-16.71606 16.56867,-3.25614 31.00321,2.74341 43.63544,12.80139 18.84045,15.00116 24.27856,36.16254 23.93185,58.88123 -0.3703,24.26751 -10.23794,44.98352 -27.87063,61.5595 -27.78116,26.11634 -55.94653,51.82404 -83.95993,77.69318 -0.21826,0.2016 -0.58457,0.24286 -1.09592,0.44269 -21.1822,-26.47461 -49.53931,-45.1181 -74.65335,-67.35895 -16.6199,-14.7185 -29.49341,-31.80737 -34.76196,-53.59302 -6.91417,-28.59008 -1.86028,-54.62536 19.02615,-76.36139 8.78998,-9.14749 19.954,-14.1315 32.62865,-14.0541 9.05351,0.0553 18.43548,0.52099 27.07017,2.94415 14.97196,4.20151 23.95273,15.50333 29.63941,29.61185 5.27838,13.09558 6.16171,26.84253 6.11828,40.71783 -0.005,1.7182 -0.79498,3.43384 -1.43087,5.99536 -0.61457,-1.65716 -0.94217,-2.54059 -1.35889,-3.80121 z"/>
  </svg>
</svg>
