<?xml version="1.0" encoding="UTF-8"?> <svg xmlns="http://www.w3.org/2000/svg" width="200" height="103" viewBox="0 0 200 103" fill="none"><path d="M87.0124 61.5985H80.553V69.5102H76.8247V59.992V50.4714H88.1492V53.4386H80.553V58.6313H87.0124V61.5985Z" fill="#1D252B"></path><path d="M100.632 61.1553H94.2402V66.543H101.759V69.5126H90.512V59.992V50.4714H101.731V53.4386H94.2402V58.1857H100.632V61.1553Z" fill="#1D252B"></path><path d="M107.824 61.9407V69.5128H104.11V50.4861H110.321C112.193 50.4861 113.664 50.9822 114.734 51.9697C115.803 52.9596 116.335 54.3348 116.335 56.0954C116.335 57.0901 116.116 57.9475 115.671 58.6676C115.228 59.3877 114.577 59.9585 113.722 60.3872C114.698 60.7172 115.401 61.2663 115.834 62.0346C116.266 62.8029 116.482 63.759 116.482 64.9127V66.259C116.482 66.7841 116.543 67.3428 116.665 67.9401C116.786 68.5374 117 68.9709 117.304 69.2407V69.5152H113.46C113.156 69.2383 112.964 68.7831 112.884 68.1545C112.807 67.5283 112.768 66.8852 112.768 66.2325V64.9368C112.768 63.9878 112.573 63.2509 112.186 62.7282C111.798 62.2032 111.242 61.9431 110.517 61.9431H107.824V61.9407ZM107.824 58.9711H110.309C111.068 58.9711 111.641 58.7398 112.034 58.2798C112.426 57.8174 112.622 57.1575 112.622 56.3049C112.622 55.4523 112.426 54.7394 112.034 54.224C111.641 53.711 111.071 53.4533 110.321 53.4533H107.824V58.9711Z" fill="#1D252B"></path><path d="M129.854 53.4389H125.564V69.5105H121.851V62.4706V53.4389H117.588V50.4741H129.854V53.4389Z" fill="#1D252B"></path><path d="M135.945 69.5105H132.243V50.4741H135.945V58.4365V69.5105Z" fill="#1D252B"></path><path d="M143.161 66.5433H150.116V69.5105H139.432V61.5939V50.4741H143.161V66.5433Z" fill="#1D252B"></path><path d="M156.272 69.5105H152.57V50.4741H156.272V56.7746V69.5105Z" fill="#1D252B"></path><path d="M163.372 66.5433H170.682V69.5105H159.186V67.6415L166.327 53.4389H159.107V50.4741H170.562V52.2756L163.372 66.5433Z" fill="#1D252B"></path><path d="M183.333 61.1553H176.939V66.543H184.458V69.5126H173.213V61.6828V50.4714H184.432V53.4386H176.939V58.1857H183.333V61.1553Z" fill="#1D252B"></path><path d="M190.523 61.9407V69.5128H186.809V50.4861H193.02C194.894 50.4861 196.366 50.9822 197.433 51.9697C198.502 52.9596 199.034 54.3348 199.034 56.0954C199.034 57.0901 198.813 57.9475 198.367 58.6676C197.924 59.3877 197.274 59.9585 196.419 60.3872C197.396 60.7172 198.097 61.2663 198.531 62.0346C198.962 62.8029 199.179 63.759 199.179 64.9127V66.259C199.179 66.7841 199.239 67.3428 199.362 67.9401C199.482 68.5374 199.696 68.9709 200 69.2407V69.5152H196.156C195.853 69.2383 195.66 68.7831 195.58 68.1545C195.501 67.5283 195.462 66.8852 195.462 66.2325V64.9368C195.462 63.9878 195.267 63.2509 194.882 62.7282C194.494 62.2032 193.938 61.9431 193.213 61.9431H190.518L190.523 61.9407ZM190.523 58.9711H193.008C193.767 58.9711 194.34 58.7398 194.733 58.2798C195.125 57.8174 195.323 57.1575 195.323 56.3049C195.323 55.4523 195.128 54.7394 194.733 54.224C194.34 53.711 193.769 53.4533 193.02 53.4533H190.523V58.9711Z" fill="#1D252B"></path><path d="M80.7216 98.6862H77.0198V79.645H80.7216V87.4075V98.6862Z" fill="#1D252B"></path><path d="M97.5374 98.6862H93.8356L88.0168 86.5091L87.9373 86.5356V98.6862H84.2114V93.537V79.645H87.9373L93.7561 91.8077L93.8356 91.7788V79.645H97.5374V92.4218V98.6862Z" fill="#1D252B"></path><path d="M109.3 93.718C109.3 92.9762 109.108 92.3909 108.725 91.9574C108.342 91.5239 107.665 91.1 106.697 90.6809C104.717 89.9945 103.233 89.2094 102.246 88.3351C101.256 87.4608 100.762 86.2325 100.762 84.655C100.762 83.0774 101.338 81.8251 102.489 80.8424C103.64 79.8622 105.11 79.3708 106.897 79.3708C108.684 79.3708 110.184 79.9176 111.316 81.011C112.448 82.1044 113 83.4845 112.963 85.1487L112.939 85.2282H109.329C109.329 84.3587 109.11 83.6507 108.676 83.1112C108.241 82.5693 107.624 82.2995 106.832 82.2995C106.092 82.2995 105.512 82.5235 105.097 82.9739C104.683 83.4219 104.479 83.9878 104.479 84.667C104.479 85.2932 104.707 85.811 105.172 86.2157C105.635 86.6203 106.437 87.0731 107.578 87.5692C109.382 88.181 110.74 88.9517 111.651 89.891C112.564 90.8278 113.019 92.0947 113.019 93.6891C113.019 95.2835 112.47 96.6274 111.372 97.5619C110.273 98.4939 108.811 98.9612 106.993 98.9612C105.175 98.9612 103.607 98.4313 102.277 97.3716C100.95 96.3119 100.307 94.7921 100.348 92.8148L100.375 92.7353H103.997C103.997 93.9107 104.247 94.7584 104.743 95.2714C105.24 95.7868 105.989 96.0421 106.993 96.0421C107.776 96.0421 108.359 95.8302 108.737 95.4135C109.115 94.9969 109.307 94.4309 109.307 93.7156" fill="#1D252B"></path><path d="M126.952 82.6122H122.662V93.9705V98.6862H118.949V88.5828V82.6122H114.686V79.645H126.952V82.6122Z" fill="#1D252B"></path><path d="M133.043 98.6862H129.341V85.117V79.645H133.043V98.6862Z" fill="#1D252B"></path><path d="M147.359 82.6122H143.069V98.6862H139.355V88.5828V82.6122H135.092V79.645H147.359V82.6122Z" fill="#1D252B"></path><path d="M162.262 79.6452V92.6027C162.262 94.6354 161.667 96.2009 160.478 97.304C159.288 98.4071 157.729 98.9586 155.803 98.9586C153.876 98.9586 152.32 98.4046 151.128 97.2968C149.938 96.1889 149.343 94.6234 149.343 92.6003V79.6428H153.057V92.6003C153.057 93.7587 153.296 94.6137 153.777 95.1629C154.256 95.712 154.933 95.9866 155.803 95.9866C156.672 95.9866 157.385 95.724 157.855 95.2014C158.327 94.6788 158.563 93.8117 158.563 92.6003V79.6428H162.262V79.6452Z" fill="#1D252B"></path><path d="M176.539 82.6122H172.25V98.6862H168.536V91.3067V82.6122H164.273V79.645H176.539V82.6122Z" fill="#1D252B"></path><path d="M188.854 90.3289H182.459V95.7166H189.978V98.6862H178.731V92.5447V79.645H189.952V82.6122H182.459V87.3617H188.854V90.3289Z" fill="#1D252B"></path><path d="M84.527 28.8245H81.4418V40.3827H78.7708V28.8245H75.7048V26.6882H84.527V28.8245Z" fill="#1D252B"></path><path d="M95.6298 40.3827H92.9589V34.7132H88.7079V40.3827H86.0273V26.6882H88.7079V32.5769H92.9589V26.6882H95.6298V40.3827Z" fill="#1D252B"></path><path d="M105.172 34.3734H100.572V38.2486H105.979V40.3825H97.8914V26.6904H105.962V28.8243H100.572V32.2371H105.172V34.3734Z" fill="#1D252B"></path><path d="M24.5133 66.9091C28.5258 51.389 35.6163 38.5833 42.1672 29.2337C44.0434 26.5579 45.9292 24.0724 47.7813 21.782C44.9201 12.5986 41.1172 6.40643 39.7034 4.29663H4.02222V51.6034C7.31216 53.2002 16.5702 58.1712 24.5133 66.9091Z" fill="#C9DC5F"></path><path d="M55.2112 47.4154C55.1847 48.769 55.1341 50.1105 55.057 51.4375C54.8162 62.2563 52.073 73.3929 49.0865 82.4487C46.6973 89.9342 44.1853 95.7265 42.6511 98.9923H65.9336V8.58398C62.8147 11.3176 57.7545 16.0983 52.2681 22.6541C54.2117 29.5688 55.5652 37.9261 55.2088 47.4154" fill="#82D2E9"></path><path d="M27.791 70.8493C28.1474 71.3214 28.4991 71.7983 28.8435 72.2872C35.0091 81.0323 38.3255 89.575 39.9874 94.9651C41.4421 91.6102 43.3761 86.8174 45.2233 81.2201C47.8823 72.8797 50.375 62.4222 51.0422 51.2157C51.0518 50.7797 51.0638 50.3438 51.0638 49.9103L51.0686 49.7706C51.1313 48.8867 51.1722 48.0148 51.2011 47.1478C51.3215 40.4379 50.7363 33.5256 49.0985 26.6904C36.8395 42.7644 30.7365 58.2411 27.7886 70.8493" fill="#61A744"></path><path d="M20.4527 68.4651C20.0938 68.0942 19.7349 67.7305 19.3737 67.3741C19.287 67.2874 19.2003 67.2031 19.1112 67.1188C18.7427 66.7599 18.3718 66.4059 17.9985 66.0639C17.9286 65.9988 17.8588 65.9362 17.7889 65.8712C17.3987 65.5147 17.0086 65.1631 16.6184 64.8235C16.5967 64.8042 16.5751 64.7874 16.5534 64.7681C14.9084 63.3423 13.2779 62.0731 11.7196 60.9531C11.5896 60.8592 11.4571 60.7605 11.327 60.6689C11.0693 60.4859 10.814 60.3101 10.5612 60.1343C10.3661 60.0018 10.1734 59.8669 9.98313 59.7393C9.77359 59.5972 9.56888 59.4623 9.36175 59.325C9.12813 59.1709 8.89692 59.0192 8.67052 58.8722C8.50916 58.7663 8.34779 58.6651 8.18883 58.564C7.91668 58.3906 7.64693 58.2244 7.38441 58.0606C7.27603 57.9956 7.17006 57.9281 7.06409 57.8631C6.73413 57.6632 6.41381 57.4729 6.10553 57.2923C6.07181 57.2706 6.03568 57.2514 6.00196 57.2297C5.27461 56.8058 4.60988 56.4373 4.02222 56.1194V98.985H36.9481C36.0522 95.5433 33.9303 88.7274 29.677 81.1335C29.6505 81.0854 29.624 81.0396 29.5975 80.9914C29.3037 80.4664 28.9978 79.9389 28.6823 79.4091C28.586 79.2477 28.4872 79.0839 28.3885 78.9226C28.138 78.5083 27.8827 78.0941 27.6178 77.6774C27.4805 77.4606 27.3408 77.2415 27.1987 77.0223C26.6761 76.2155 26.1342 75.4062 25.5634 74.5946C24.7782 73.4795 23.9473 72.4174 23.0971 71.3962C22.7455 70.9771 22.3891 70.5677 22.0326 70.1631C21.9507 70.0715 21.8688 69.9776 21.7869 69.8861C21.4353 69.4959 21.0813 69.1154 20.7248 68.7397C20.6357 68.6457 20.5442 68.5494 20.4551 68.4555" fill="#F68E1F"></path><path d="M41.8516 103.007H41.8685H69.9486V0.286766L66.7357 2.70244C66.348 2.99627 59.3201 8.3358 50.8496 18.1069C47.2441 7.70238 42.6898 1.52712 42.355 1.08155L41.7529 0.279541H0.00722535V49.831H0V103.007H41.8516ZM4.0197 4.29443H39.7009C41.1122 6.40664 44.9176 12.5988 47.7788 21.7798C45.9291 24.0702 44.0409 26.5557 42.1647 29.2315C35.6137 38.5835 28.5233 51.3892 24.5108 66.9069C16.5677 58.169 7.30964 53.198 4.0197 51.6012V4.29443ZM65.9337 8.58387V98.9898H42.6512C44.1854 95.7264 46.6974 89.9316 49.0866 82.4462C52.0707 73.3904 54.8163 62.2537 55.0571 51.435C55.1342 50.1079 55.1848 48.7664 55.2113 47.4129C55.5653 37.9212 54.2142 29.5663 52.2706 22.6516C57.7546 16.0958 62.8148 11.3151 65.9361 8.58146M51.2012 47.1455C51.1699 48.0126 51.1314 48.8844 51.0688 49.7684L51.0639 49.908C51.0639 50.3416 51.0519 50.7775 51.0423 51.2134C50.3775 62.4199 47.8824 72.8774 45.2234 81.2179C43.3762 86.8151 41.4422 91.6079 39.9875 94.9629C38.3281 89.5728 35.0116 81.03 28.8436 72.2874C28.4992 71.7984 28.1475 71.3192 27.7911 70.8495C30.739 58.2437 36.842 42.7646 49.0986 26.6906C50.7364 33.5258 51.3216 40.438 51.2012 47.148M22.0301 70.1703C22.3889 70.5749 22.7454 70.982 23.0946 71.401C23.9472 72.4222 24.7757 73.4843 25.5633 74.5995C26.1341 75.4087 26.6784 76.2204 27.1986 77.0272C27.3407 77.2463 27.4804 77.4631 27.6177 77.6823C27.8802 78.0989 28.1355 78.5132 28.386 78.925C28.4847 79.0888 28.5835 79.2502 28.6798 79.4115C28.9953 79.9414 29.2988 80.4713 29.595 80.9939C29.6215 81.0421 29.648 81.0878 29.6745 81.136C33.9254 88.7322 36.0473 95.5457 36.9432 98.9874H4.0197V56.1194C4.60736 56.4349 5.27209 56.8058 5.99945 57.2297C6.03316 57.249 6.06929 57.2707 6.10301 57.2899C6.41129 57.4706 6.73162 57.6608 7.06157 57.8607C7.16754 57.9258 7.27592 57.9908 7.3819 58.0582C7.64442 58.2196 7.91176 58.3882 8.18632 58.5616C8.34287 58.6628 8.50423 58.7639 8.6656 58.8699C8.89199 59.0168 9.12561 59.1685 9.35923 59.3227C9.56395 59.4575 9.76867 59.5948 9.9782 59.7369C10.1685 59.8646 10.3636 59.9994 10.5562 60.1343C10.8091 60.3101 11.0644 60.4835 11.3221 60.6666C11.4522 60.7581 11.5846 60.8569 11.7147 60.9508C13.2706 62.0731 14.9035 63.34 16.5485 64.7658C16.5701 64.785 16.5918 64.8019 16.6135 64.8212C17.0037 65.1608 17.3938 65.5124 17.784 65.8688C17.8538 65.9314 17.9261 65.9965 17.9959 66.0615C18.3668 66.4059 18.7377 66.7576 19.1062 67.1164C19.1953 67.2007 19.2796 67.285 19.3687 67.3717C19.73 67.7282 20.0913 68.0918 20.4477 68.4627C20.5393 68.5567 20.6284 68.6506 20.7175 68.7469C21.0739 69.1227 21.4304 69.5008 21.782 69.8934C21.8639 69.9849 21.9434 70.0788 22.0277 70.1703" fill="white"></path></svg> 